<svg xmlns="http://www.w3.org/2000/svg" xmlns:xlink="http://www.w3.org/1999/xlink" width="500" zoomAndPan="magnify" viewBox="0 0 375 374.999991" height="500" preserveAspectRatio="xMidYMid meet" version="1.0"><defs><g/><clipPath id="6a4493bf96"><path d="M 32.125 205.183594 L 157.339844 205.183594 L 157.339844 218.269531 L 32.125 218.269531 Z M 32.125 205.183594 " clip-rule="nonzero"/></clipPath></defs><g fill="#1b1b22" fill-opacity="1"><g transform="translate(-2.005354, 189.458996)"><g><path d="M 16.609375 31.578125 C 14.785156 30.847656 13.691406 29.460938 13.328125 27.421875 C 13.035156 25.453125 11.796875 23.847656 9.609375 22.609375 C 10.191406 18.898438 10.847656 15.148438 11.578125 11.359375 C 12.304688 7.578125 13.234375 3.265625 14.359375 -1.578125 C 15.492188 -6.421875 16.914062 -12.066406 18.625 -18.515625 C 20.332031 -24.960938 22.5 -32.773438 25.125 -41.953125 C 22.71875 -41.953125 20.820312 -41.914062 19.4375 -41.84375 C 18.0625 -41.769531 16.71875 -41.625 15.40625 -41.40625 C 15.113281 -41.695312 14.875 -42.097656 14.6875 -42.609375 C 14.507812 -43.117188 14.421875 -43.59375 14.421875 -44.03125 C 15.148438 -44.320312 16.640625 -44.703125 18.890625 -45.171875 C 21.148438 -45.648438 23.628906 -46.070312 26.328125 -46.4375 C 28.078125 -51.96875 30.078125 -56.9375 32.328125 -61.34375 C 34.585938 -65.75 37.03125 -69.515625 39.65625 -72.640625 C 42.28125 -75.773438 45.046875 -78.179688 47.953125 -79.859375 C 50.867188 -81.535156 53.820312 -82.375 56.8125 -82.375 C 57.6875 -82.375 58.523438 -82.316406 59.328125 -82.203125 C 60.128906 -82.097656 60.75 -82.046875 61.1875 -82.046875 C 61.832031 -82.554688 62.703125 -83.007812 63.796875 -83.40625 C 64.890625 -83.8125 65.835938 -84.015625 66.640625 -84.015625 C 67.515625 -84.015625 68.644531 -83.539062 70.03125 -82.59375 C 69.445312 -81.570312 68.828125 -80.1875 68.171875 -78.4375 C 67.515625 -76.6875 66.96875 -74.976562 66.53125 -73.3125 C 64.707031 -67.914062 62.78125 -64.414062 60.75 -62.8125 C 59.945312 -62.8125 59.507812 -63.867188 59.4375 -65.984375 C 59.363281 -67.515625 59.144531 -69.007812 58.78125 -70.46875 C 58.488281 -71.125 58.285156 -71.707031 58.171875 -72.21875 C 58.066406 -72.726562 58.015625 -73.382812 58.015625 -74.1875 C 58.015625 -74.625 58.050781 -75.148438 58.125 -75.765625 C 58.195312 -76.378906 58.34375 -77.414062 58.5625 -78.875 C 57.320312 -78.875 55.953125 -78.109375 54.453125 -76.578125 C 52.960938 -75.054688 51.398438 -72.890625 49.765625 -70.078125 C 48.128906 -67.273438 46.472656 -63.941406 44.796875 -60.078125 C 43.117188 -56.222656 41.515625 -51.96875 39.984375 -47.3125 L 49.15625 -47.640625 C 49.519531 -47.273438 49.828125 -46.453125 50.078125 -45.171875 C 50.335938 -43.898438 50.503906 -42.570312 50.578125 -41.1875 L 38.5625 -41.84375 C 35.789062 -33.613281 33.203125 -25.742188 30.796875 -18.234375 C 28.398438 -10.734375 26.253906 -3.816406 24.359375 2.515625 C 22.460938 8.847656 20.84375 14.507812 19.5 19.5 C 18.15625 24.488281 17.191406 28.515625 16.609375 31.578125 Z M 16.609375 31.578125 "/></g></g></g><g fill="#1b1b22" fill-opacity="1"><g transform="translate(36.99514, 189.458996)"><g><path d="M 48.28125 -44.140625 C 49.007812 -44.140625 49.863281 -44.007812 50.84375 -43.75 C 51.832031 -43.5 52.726562 -43.171875 53.53125 -42.765625 C 54.332031 -42.367188 55.003906 -41.953125 55.546875 -41.515625 C 56.097656 -41.078125 56.375 -40.675781 56.375 -40.3125 C 54.914062 -37.25 53.566406 -34.171875 52.328125 -31.078125 C 51.085938 -27.984375 50.03125 -25.015625 49.15625 -22.171875 C 48.28125 -19.335938 47.609375 -16.679688 47.140625 -14.203125 C 46.671875 -11.722656 46.4375 -9.570312 46.4375 -7.75 C 46.4375 -5.71875 46.65625 -4.023438 47.09375 -2.671875 C 47.53125 -1.328125 48.253906 -0.363281 49.265625 0.21875 C 48.390625 0.800781 47.257812 1.273438 45.875 1.640625 C 44.5 2.003906 43.265625 2.1875 42.171875 2.1875 C 38.234375 2.1875 36.265625 -0.507812 36.265625 -5.90625 C 36.265625 -10.050781 37.648438 -15.726562 40.421875 -22.9375 C 38.960938 -19.59375 37.285156 -16.441406 35.390625 -13.484375 C 33.503906 -10.535156 31.578125 -7.929688 29.609375 -5.671875 C 27.640625 -3.421875 25.648438 -1.582031 23.640625 -0.15625 C 21.640625 1.257812 19.804688 2.113281 18.140625 2.40625 C 15.441406 2.257812 13.253906 0.96875 11.578125 -1.46875 C 9.898438 -3.914062 9.0625 -7.03125 9.0625 -10.8125 C 9.0625 -14.894531 9.9375 -19.191406 11.6875 -23.703125 C 13.4375 -28.222656 15.675781 -32.410156 18.40625 -36.265625 C 21.132812 -40.128906 24.101562 -43.351562 27.3125 -45.9375 C 30.519531 -48.519531 33.613281 -49.882812 36.59375 -50.03125 C 37.320312 -49.8125 38.140625 -49.375 39.046875 -48.71875 C 39.960938 -48.070312 40.835938 -47.3125 41.671875 -46.4375 C 42.515625 -45.5625 43.226562 -44.664062 43.8125 -43.75 C 44.394531 -42.84375 44.722656 -42.0625 44.796875 -41.40625 C 41.878906 -40.96875 38.875 -39.546875 35.78125 -37.140625 C 32.6875 -34.742188 29.878906 -31.847656 27.359375 -28.453125 C 24.847656 -25.066406 22.789062 -21.441406 21.1875 -17.578125 C 19.59375 -13.722656 18.796875 -10.125 18.796875 -6.78125 C 18.796875 -5.394531 19.304688 -4.519531 20.328125 -4.15625 C 22.429688 -4.59375 24.867188 -6.394531 27.640625 -9.5625 C 30.410156 -12.726562 33.757812 -17.625 37.6875 -24.25 C 38.414062 -25.5625 39.234375 -27.019531 40.140625 -28.625 C 41.054688 -30.226562 41.988281 -31.898438 42.9375 -33.640625 C 43.882812 -35.390625 44.8125 -37.15625 45.71875 -38.9375 C 46.632812 -40.726562 47.488281 -42.460938 48.28125 -44.140625 Z M 48.28125 -44.140625 "/></g></g></g><g fill="#1b1b22" fill-opacity="1"><g transform="translate(89.978944, 189.458996)"><g><path d="M 10.703125 -7.3125 C 10.703125 -7.96875 10.753906 -8.785156 10.859375 -9.765625 C 10.972656 -10.753906 11.175781 -12.066406 11.46875 -13.703125 C 11.757812 -15.347656 12.140625 -17.332031 12.609375 -19.65625 C 13.085938 -21.988281 13.691406 -24.796875 14.421875 -28.078125 C 14.566406 -28.804688 14.894531 -29.972656 15.40625 -31.578125 C 15.914062 -33.179688 16.585938 -34.875 17.421875 -36.65625 C 18.265625 -38.4375 19.285156 -40.164062 20.484375 -41.84375 C 21.679688 -43.519531 23.117188 -44.757812 24.796875 -45.5625 C 26.035156 -45.269531 27.675781 -44.519531 29.71875 -43.3125 C 31.757812 -42.113281 33.503906 -40.457031 34.953125 -38.34375 C 33.285156 -36.445312 31.882812 -34.550781 30.75 -32.65625 C 29.625 -30.769531 28.601562 -28.804688 27.6875 -26.765625 C 26.78125 -24.722656 25.941406 -22.609375 25.171875 -20.421875 C 24.410156 -18.242188 23.554688 -15.953125 22.609375 -13.546875 C 21.804688 -11.503906 21.078125 -9.410156 20.421875 -7.265625 C 19.773438 -5.117188 19.414062 -3.242188 19.34375 -1.640625 C 19.34375 -0.328125 19.320312 0.597656 19.28125 1.140625 C 19.25 1.691406 19.050781 1.96875 18.6875 1.96875 C 18.394531 1.96875 17.8125 1.785156 16.9375 1.421875 C 16.0625 1.054688 15.164062 0.492188 14.25 -0.265625 C 13.34375 -1.035156 12.523438 -2.003906 11.796875 -3.171875 C 11.066406 -4.335938 10.703125 -5.71875 10.703125 -7.3125 Z M 31.578125 -54.734375 C 31.578125 -55.171875 31.6875 -55.828125 31.90625 -56.703125 C 31.539062 -57.066406 31.226562 -57.613281 30.96875 -58.34375 C 30.71875 -59.070312 30.59375 -59.726562 30.59375 -60.3125 C 30.59375 -60.96875 30.679688 -61.859375 30.859375 -62.984375 C 31.046875 -64.109375 31.285156 -65.328125 31.578125 -66.640625 C 31.867188 -67.953125 32.234375 -69.316406 32.671875 -70.734375 C 33.109375 -72.160156 33.546875 -73.457031 33.984375 -74.625 C 34.847656 -74.625 35.914062 -74.382812 37.1875 -73.90625 C 38.46875 -73.4375 39.765625 -72.816406 41.078125 -72.046875 C 42.390625 -71.285156 43.59375 -70.445312 44.6875 -69.53125 C 45.78125 -68.625 46.617188 -67.769531 47.203125 -66.96875 C 46.398438 -66.164062 45.34375 -65.050781 44.03125 -63.625 C 42.71875 -62.207031 41.441406 -60.71875 40.203125 -59.15625 C 38.960938 -57.59375 37.832031 -56.117188 36.8125 -54.734375 C 35.789062 -53.347656 35.132812 -52.363281 34.84375 -51.78125 C 33.976562 -51.925781 33.21875 -52.304688 32.5625 -52.921875 C 31.90625 -53.546875 31.578125 -54.148438 31.578125 -54.734375 Z M 31.578125 -54.734375 "/></g></g></g><g fill="#1b1b22" fill-opacity="1"><g transform="translate(117.399501, 189.458996)"><g><path d="M 7.96875 -2.1875 C 8.332031 -4.300781 8.96875 -7.085938 9.875 -10.546875 C 10.789062 -14.003906 11.867188 -17.679688 13.109375 -21.578125 C 14.347656 -25.472656 15.660156 -29.382812 17.046875 -33.3125 C 18.429688 -37.25 19.773438 -40.785156 21.078125 -43.921875 C 22.023438 -46.179688 22.863281 -47.945312 23.59375 -49.21875 C 24.320312 -50.488281 25.125 -51.5625 26 -52.4375 C 27.019531 -52.289062 28.078125 -52.035156 29.171875 -51.671875 C 30.265625 -51.304688 31.320312 -50.867188 32.34375 -50.359375 C 33.363281 -49.847656 34.269531 -49.316406 35.0625 -48.765625 C 35.863281 -48.222656 36.484375 -47.703125 36.921875 -47.203125 C 34.960938 -44.867188 33.234375 -42.207031 31.734375 -39.21875 C 30.242188 -36.226562 28.734375 -32.40625 27.203125 -27.75 C 31.140625 -31.25 34.617188 -34.597656 37.640625 -37.796875 C 40.660156 -41.003906 43.484375 -44.570312 46.109375 -48.5 C 46.546875 -48.863281 47.304688 -49.046875 48.390625 -49.046875 C 49.410156 -49.046875 50.394531 -48.878906 51.34375 -48.546875 C 52.289062 -48.222656 52.945312 -47.773438 53.3125 -47.203125 C 52 -43.703125 51.34375 -40.238281 51.34375 -36.8125 C 51.34375 -33.613281 51.816406 -31.210938 52.765625 -29.609375 C 52.691406 -29.171875 52.195312 -28.332031 51.28125 -27.09375 C 50.375 -25.851562 49.375 -24.6875 48.28125 -23.59375 C 46.320312 -24.613281 44.578125 -26.015625 43.046875 -27.796875 C 41.515625 -29.585938 40.382812 -31.539062 39.65625 -33.65625 C 36.226562 -31.25 33.3125 -28.894531 30.90625 -26.59375 C 28.507812 -24.300781 26.453125 -21.753906 24.734375 -18.953125 C 23.023438 -16.148438 21.570312 -12.925781 20.375 -9.28125 C 19.175781 -5.644531 18.03125 -1.3125 16.9375 3.71875 C 16.28125 3.644531 15.492188 3.40625 14.578125 3 C 13.671875 2.601562 12.757812 2.113281 11.84375 1.53125 C 10.9375 0.945312 10.117188 0.328125 9.390625 -0.328125 C 8.660156 -0.984375 8.1875 -1.601562 7.96875 -2.1875 Z M 7.96875 -2.1875 "/></g></g></g><g fill="#1b1b22" fill-opacity="1"><g transform="translate(163.063914, 189.458996)"><g><path d="M 2.625 36.15625 C 1.601562 35.863281 1.019531 34.773438 0.875 32.890625 C 0.582031 31.941406 0.378906 30.8125 0.265625 29.5 C 0.160156 28.1875 0.109375 26.691406 0.109375 25.015625 C 0.109375 23.484375 0.363281 21.390625 0.875 18.734375 C 1.382812 16.078125 2.09375 13.070312 3 9.71875 C 3.914062 6.375 5.023438 2.753906 6.328125 -1.140625 C 7.640625 -5.035156 9.097656 -8.988281 10.703125 -13 C 12.671875 -18.019531 14.382812 -22.367188 15.84375 -26.046875 C 17.300781 -29.734375 18.519531 -32.921875 19.5 -35.609375 C 20.476562 -38.304688 21.273438 -40.53125 21.890625 -42.28125 C 22.515625 -44.03125 23.007812 -45.523438 23.375 -46.765625 C 23.664062 -47.628906 24.101562 -48.679688 24.6875 -49.921875 C 25.269531 -51.160156 25.941406 -52.414062 26.703125 -53.6875 C 27.472656 -54.96875 28.257812 -56.171875 29.0625 -57.296875 C 29.863281 -58.429688 30.59375 -59.289062 31.25 -59.875 C 33.789062 -59.507812 36.191406 -58.851562 38.453125 -57.90625 C 40.710938 -56.957031 42.097656 -56.046875 42.609375 -55.171875 C 41.585938 -54.222656 40.421875 -52.75 39.109375 -50.75 C 37.796875 -48.75 36.519531 -46.5625 35.28125 -44.1875 C 34.050781 -41.820312 32.925781 -39.398438 31.90625 -36.921875 C 30.882812 -34.453125 30.117188 -32.269531 29.609375 -30.375 C 30.335938 -31.613281 31.28125 -32.957031 32.4375 -34.40625 C 33.601562 -35.863281 35.390625 -37.867188 37.796875 -40.421875 C 40.492188 -43.191406 43.023438 -45.320312 45.390625 -46.8125 C 47.753906 -48.300781 49.8125 -49.046875 51.5625 -49.046875 C 54.332031 -49.046875 56.609375 -48.28125 58.390625 -46.75 C 60.179688 -45.226562 61.078125 -43.265625 61.078125 -40.859375 C 61.078125 -35.617188 60.203125 -30.429688 58.453125 -25.296875 C 56.703125 -20.160156 54.1875 -15.515625 50.90625 -11.359375 C 49.664062 -9.753906 48.207031 -8.222656 46.53125 -6.765625 C 44.863281 -5.316406 43.117188 -4.023438 41.296875 -2.890625 C 39.472656 -1.765625 37.6875 -0.875 35.9375 -0.21875 C 34.195312 0.4375 32.632812 0.765625 31.25 0.765625 C 29.9375 0.765625 28.785156 0.492188 27.796875 -0.046875 C 26.816406 -0.597656 26.144531 -1.273438 25.78125 -2.078125 C 28.625 -3.753906 31.390625 -6.082031 34.078125 -9.0625 C 36.773438 -12.050781 39.269531 -15.492188 41.5625 -19.390625 C 43.863281 -23.285156 45.867188 -27.488281 47.578125 -32 C 49.285156 -36.519531 50.578125 -41.113281 51.453125 -45.78125 C 48.691406 -44.320312 46.195312 -42.734375 43.96875 -41.015625 C 41.75 -39.304688 39.546875 -37.066406 37.359375 -34.296875 C 34.742188 -31.097656 32.671875 -28.515625 31.140625 -26.546875 C 29.609375 -24.578125 28.347656 -22.898438 27.359375 -21.515625 C 26.378906 -20.140625 25.578125 -18.847656 24.953125 -17.640625 C 24.335938 -16.441406 23.664062 -14.96875 22.9375 -13.21875 C 21.914062 -10.882812 20.734375 -7.804688 19.390625 -3.984375 C 18.046875 -0.160156 16.660156 4.113281 15.234375 8.84375 C 13.816406 13.582031 12.394531 18.628906 10.96875 23.984375 C 9.550781 29.335938 8.1875 34.671875 6.875 39.984375 C 6.082031 39.835938 5.394531 39.253906 4.8125 38.234375 C 4.226562 37.578125 3.804688 37.101562 3.546875 36.8125 C 3.296875 36.519531 2.988281 36.300781 2.625 36.15625 Z M 2.625 36.15625 "/></g></g></g><g fill="#1b1b22" fill-opacity="1"><g transform="translate(219.106565, 189.458996)"><g><path d="M 10.484375 -6.984375 C 10.484375 -10.191406 11.25 -14.691406 12.78125 -20.484375 C 14.3125 -26.273438 16.460938 -33.03125 19.234375 -40.75 C 23.742188 -53.0625 27.984375 -63.3125 31.953125 -71.5 C 35.921875 -79.695312 39.800781 -86.085938 43.59375 -90.671875 C 44.46875 -90.523438 45.539062 -90.160156 46.8125 -89.578125 C 48.082031 -89.003906 49.335938 -88.367188 50.578125 -87.671875 C 51.816406 -86.984375 52.925781 -86.273438 53.90625 -85.546875 C 54.894531 -84.816406 55.535156 -84.234375 55.828125 -83.796875 C 50.148438 -77.097656 45.160156 -69.882812 40.859375 -62.15625 C 36.554688 -54.4375 32.625 -45.585938 29.0625 -35.609375 C 26 -27.015625 23.664062 -19.273438 22.0625 -12.390625 C 20.46875 -5.515625 19.671875 0.21875 19.671875 4.8125 C 19.671875 6.050781 19.671875 6.8125 19.671875 7.09375 C 19.671875 7.382812 19.707031 7.675781 19.78125 7.96875 C 18.757812 7.820312 17.882812 7.566406 17.15625 7.203125 C 16.425781 6.847656 15.953125 6.414062 15.734375 5.90625 C 15.585938 5.539062 15.1875 5.007812 14.53125 4.3125 C 13.875 3.625 13.289062 3.097656 12.78125 2.734375 C 12.125 2.296875 11.578125 1.148438 11.140625 -0.703125 C 10.703125 -2.566406 10.484375 -4.660156 10.484375 -6.984375 Z M 10.484375 -6.984375 "/></g></g></g><g fill="#1b1b22" fill-opacity="1"><g transform="translate(246.527113, 189.458996)"><g><path d="M 48.28125 -44.140625 C 49.007812 -44.140625 49.863281 -44.007812 50.84375 -43.75 C 51.832031 -43.5 52.726562 -43.171875 53.53125 -42.765625 C 54.332031 -42.367188 55.003906 -41.953125 55.546875 -41.515625 C 56.097656 -41.078125 56.375 -40.675781 56.375 -40.3125 C 54.914062 -37.25 53.566406 -34.171875 52.328125 -31.078125 C 51.085938 -27.984375 50.03125 -25.015625 49.15625 -22.171875 C 48.28125 -19.335938 47.609375 -16.679688 47.140625 -14.203125 C 46.671875 -11.722656 46.4375 -9.570312 46.4375 -7.75 C 46.4375 -5.71875 46.65625 -4.023438 47.09375 -2.671875 C 47.53125 -1.328125 48.253906 -0.363281 49.265625 0.21875 C 48.390625 0.800781 47.257812 1.273438 45.875 1.640625 C 44.5 2.003906 43.265625 2.1875 42.171875 2.1875 C 38.234375 2.1875 36.265625 -0.507812 36.265625 -5.90625 C 36.265625 -10.050781 37.648438 -15.726562 40.421875 -22.9375 C 38.960938 -19.59375 37.285156 -16.441406 35.390625 -13.484375 C 33.503906 -10.535156 31.578125 -7.929688 29.609375 -5.671875 C 27.640625 -3.421875 25.648438 -1.582031 23.640625 -0.15625 C 21.640625 1.257812 19.804688 2.113281 18.140625 2.40625 C 15.441406 2.257812 13.253906 0.96875 11.578125 -1.46875 C 9.898438 -3.914062 9.0625 -7.03125 9.0625 -10.8125 C 9.0625 -14.894531 9.9375 -19.191406 11.6875 -23.703125 C 13.4375 -28.222656 15.675781 -32.410156 18.40625 -36.265625 C 21.132812 -40.128906 24.101562 -43.351562 27.3125 -45.9375 C 30.519531 -48.519531 33.613281 -49.882812 36.59375 -50.03125 C 37.320312 -49.8125 38.140625 -49.375 39.046875 -48.71875 C 39.960938 -48.070312 40.835938 -47.3125 41.671875 -46.4375 C 42.515625 -45.5625 43.226562 -44.664062 43.8125 -43.75 C 44.394531 -42.84375 44.722656 -42.0625 44.796875 -41.40625 C 41.878906 -40.96875 38.875 -39.546875 35.78125 -37.140625 C 32.6875 -34.742188 29.878906 -31.847656 27.359375 -28.453125 C 24.847656 -25.066406 22.789062 -21.441406 21.1875 -17.578125 C 19.59375 -13.722656 18.796875 -10.125 18.796875 -6.78125 C 18.796875 -5.394531 19.304688 -4.519531 20.328125 -4.15625 C 22.429688 -4.59375 24.867188 -6.394531 27.640625 -9.5625 C 30.410156 -12.726562 33.757812 -17.625 37.6875 -24.25 C 38.414062 -25.5625 39.234375 -27.019531 40.140625 -28.625 C 41.054688 -30.226562 41.988281 -31.898438 42.9375 -33.640625 C 43.882812 -35.390625 44.8125 -37.15625 45.71875 -38.9375 C 46.632812 -40.726562 47.488281 -42.460938 48.28125 -44.140625 Z M 48.28125 -44.140625 "/></g></g></g><g fill="#1b1b22" fill-opacity="1"><g transform="translate(299.510913, 189.458996)"><g><path d="M 51.671875 -16.9375 C 49.992188 -11.613281 48.316406 -6.765625 46.640625 -2.390625 C 44.972656 1.972656 43.191406 5.992188 41.296875 9.671875 C 39.398438 13.347656 37.359375 16.734375 35.171875 19.828125 C 32.992188 22.921875 30.59375 25.851562 27.96875 28.625 C 24.613281 32.125 21.148438 34.800781 17.578125 36.65625 C 14.015625 38.507812 10.445312 39.4375 6.875 39.4375 C 5.0625 39.4375 3.257812 39.234375 1.46875 38.828125 C -0.3125 38.429688 -1.984375 37.882812 -3.546875 37.1875 C -5.117188 36.5 -6.503906 35.703125 -7.703125 34.796875 C -8.898438 33.890625 -9.753906 32.925781 -10.265625 31.90625 C -10.265625 31.03125 -9.753906 30.265625 -8.734375 29.609375 C -7.859375 30.410156 -7.128906 31.03125 -6.546875 31.46875 C -5.972656 31.90625 -5.410156 32.269531 -4.859375 32.5625 C -4.316406 32.851562 -3.734375 33.035156 -3.109375 33.109375 C -2.492188 33.179688 -1.785156 33.21875 -0.984375 33.21875 C 3.171875 33.21875 7.234375 31.992188 11.203125 29.546875 C 15.171875 27.109375 18.921875 23.648438 22.453125 19.171875 C 25.984375 14.691406 29.203125 9.265625 32.109375 2.890625 C 35.023438 -3.484375 37.503906 -10.601562 39.546875 -18.46875 C 38.597656 -17.007812 37.429688 -15.222656 36.046875 -13.109375 C 34.671875 -10.992188 33.144531 -8.898438 31.46875 -6.828125 C 29.789062 -4.753906 28.054688 -2.878906 26.265625 -1.203125 C 24.484375 0.472656 22.753906 1.601562 21.078125 2.1875 C 19.921875 2.113281 18.703125 1.875 17.421875 1.46875 C 16.148438 1.070312 14.945312 0.507812 13.8125 -0.21875 C 12.6875 -0.945312 11.6875 -1.820312 10.8125 -2.84375 C 9.9375 -3.863281 9.351562 -5.03125 9.0625 -6.34375 C 9.0625 -8.445312 9.132812 -10.132812 9.28125 -11.40625 C 9.425781 -12.6875 9.679688 -14.09375 10.046875 -15.625 C 10.703125 -18.394531 11.664062 -21.523438 12.9375 -25.015625 C 14.21875 -28.515625 15.710938 -31.957031 17.421875 -35.34375 C 19.140625 -38.726562 21.035156 -41.894531 23.109375 -44.84375 C 25.179688 -47.789062 27.347656 -50.101562 29.609375 -51.78125 C 30.191406 -51.78125 30.921875 -51.722656 31.796875 -51.609375 C 32.671875 -51.503906 33.578125 -51.304688 34.515625 -51.015625 C 35.460938 -50.722656 36.375 -50.375 37.25 -49.96875 C 38.125 -49.570312 38.890625 -49.046875 39.546875 -48.390625 C 38.742188 -47.671875 36.992188 -45.234375 34.296875 -41.078125 C 31.609375 -36.921875 28.625 -30.945312 25.34375 -23.15625 C 24.976562 -22.351562 24.539062 -21.1875 24.03125 -19.65625 C 23.519531 -18.132812 23.023438 -16.535156 22.546875 -14.859375 C 22.078125 -13.179688 21.660156 -11.539062 21.296875 -9.9375 C 20.929688 -8.332031 20.75 -7.0625 20.75 -6.125 C 20.75 -5.539062 20.835938 -5.101562 21.015625 -4.8125 C 21.203125 -4.519531 21.367188 -4.300781 21.515625 -4.15625 C 22.828125 -4.375 24.578125 -5.445312 26.765625 -7.375 C 28.953125 -9.300781 31.425781 -12.304688 34.1875 -16.390625 C 35.9375 -19.015625 37.539062 -21.617188 39 -24.203125 C 40.457031 -26.785156 41.894531 -29.382812 43.3125 -32 C 44.738281 -34.625 46.210938 -37.320312 47.734375 -40.09375 C 49.265625 -42.863281 50.90625 -45.703125 52.65625 -48.609375 C 53.601562 -48.609375 54.625 -48.5 55.71875 -48.28125 C 56.8125 -48.0625 57.867188 -47.789062 58.890625 -47.46875 C 59.910156 -47.144531 60.800781 -46.78125 61.5625 -46.375 C 62.320312 -45.976562 62.882812 -45.5625 63.25 -45.125 C 61 -40.3125 58.890625 -35.609375 56.921875 -31.015625 C 54.953125 -26.429688 53.203125 -21.738281 51.671875 -16.9375 Z M 51.671875 -16.9375 "/></g></g></g><g fill="#1b1b22" fill-opacity="1"><g transform="translate(188.170774, 217.352652)"><g><path d="M 18.765625 -11.734375 L 13.75 0 L 9.671875 0 L 9.671875 -8.578125 L 6.6875 0 L 2.578125 0 L 1.71875 -11.734375 L 4.859375 -11.734375 L 5.078125 -2.640625 L 8.03125 -11.5625 L 12.421875 -11.5625 L 12.171875 -2.484375 L 15.390625 -11.734375 Z M 18.765625 -11.734375 "/></g></g></g><g fill="#1b1b22" fill-opacity="1"><g transform="translate(204.907901, 217.352652)"><g><path d="M 3.421875 0 L 0.359375 0 L 2.4375 -11.734375 L 5.484375 -11.734375 Z M 3.421875 0 "/></g></g></g><g fill="#1b1b22" fill-opacity="1"><g transform="translate(209.580597, 217.352652)"><g><path d="M 11.75 -9.34375 L 7.953125 -9.34375 L 6.3125 0 L 3.25 0 L 4.890625 -9.34375 L 1.078125 -9.34375 L 1.515625 -11.734375 L 12.1875 -11.734375 Z M 11.75 -9.34375 "/></g></g></g><g fill="#1b1b22" fill-opacity="1"><g transform="translate(219.792738, 217.352652)"><g><path d="M 13.25 -11.734375 L 11.171875 0 L 8.109375 0 L 8.90625 -4.5625 L 4.21875 -4.5625 L 3.421875 0 L 0.359375 0 L 2.4375 -11.734375 L 5.484375 -11.734375 L 4.640625 -6.9375 L 9.328125 -6.9375 L 10.1875 -11.734375 Z M 13.25 -11.734375 "/></g></g></g><g fill="#1b1b22" fill-opacity="1"><g transform="translate(232.213851, 217.352652)"><g/></g></g><g fill="#1b1b22" fill-opacity="1"><g transform="translate(233.861943, 217.352652)"><g><path d="M 15.84375 -11.734375 L 13.765625 0 L 10.703125 0 L 12.25 -8.609375 L 8.84375 0 L 5.28125 0 L 4.90625 -8.609375 L 3.421875 0 L 0.359375 0 L 2.4375 -11.734375 L 7.40625 -11.734375 L 7.6875 -3.296875 L 10.75 -11.734375 Z M 15.84375 -11.734375 "/></g></g></g><g fill="#1b1b22" fill-opacity="1"><g transform="translate(248.882856, 217.352652)"><g><path d="M 7.703125 -3.046875 L 4.015625 -3.046875 L 2.515625 0 L -0.734375 0 L 5.453125 -11.734375 L 9.421875 -11.734375 L 11.46875 0 L 8.140625 0 Z M 7.359375 -5.421875 L 6.875 -8.890625 L 5.171875 -5.421875 Z M 7.359375 -5.421875 "/></g></g></g><g fill="#1b1b22" fill-opacity="1"><g transform="translate(260.369399, 217.352652)"><g><path d="M 11.609375 -9.078125 C 11.609375 -7.265625 10.609375 -6.097656 8.609375 -5.578125 C 9.140625 -5.347656 9.503906 -4.96875 9.703125 -4.4375 C 9.898438 -3.914062 10 -3.191406 10 -2.265625 C 10 -1.773438 10.03125 -1.34375 10.09375 -0.96875 C 10.164062 -0.601562 10.265625 -0.28125 10.390625 0 L 7.0625 0 C 7.007812 -0.3125 6.972656 -0.65625 6.953125 -1.03125 C 6.941406 -1.40625 6.9375 -1.925781 6.9375 -2.59375 C 6.9375 -3.164062 6.84375 -3.609375 6.65625 -3.921875 C 6.476562 -4.242188 6.207031 -4.414062 5.84375 -4.4375 C 5.675781 -4.445312 5.519531 -4.453125 5.375 -4.453125 C 5.226562 -4.453125 5.066406 -4.453125 4.890625 -4.453125 L 4.203125 -4.453125 L 3.421875 0 L 0.359375 0 L 2.4375 -11.734375 L 7.09375 -11.734375 C 7.457031 -11.734375 7.773438 -11.726562 8.046875 -11.71875 C 8.316406 -11.707031 8.601562 -11.679688 8.90625 -11.640625 C 9.40625 -11.585938 9.859375 -11.460938 10.265625 -11.265625 C 10.671875 -11.078125 10.992188 -10.800781 11.234375 -10.4375 C 11.484375 -10.082031 11.609375 -9.628906 11.609375 -9.078125 Z M 4.59375 -6.65625 L 5.71875 -6.65625 C 5.875 -6.65625 6.019531 -6.65625 6.15625 -6.65625 C 6.289062 -6.65625 6.414062 -6.664062 6.53125 -6.6875 C 6.832031 -6.707031 7.113281 -6.765625 7.375 -6.859375 C 7.644531 -6.960938 7.863281 -7.125 8.03125 -7.34375 C 8.195312 -7.570312 8.28125 -7.882812 8.28125 -8.28125 C 8.28125 -8.664062 8.160156 -8.929688 7.921875 -9.078125 C 7.691406 -9.222656 7.410156 -9.304688 7.078125 -9.328125 C 6.960938 -9.335938 6.835938 -9.34375 6.703125 -9.34375 C 6.566406 -9.34375 6.414062 -9.34375 6.25 -9.34375 L 5.0625 -9.34375 Z M 4.59375 -6.65625 "/></g></g></g><g fill="#1b1b22" fill-opacity="1"><g transform="translate(271.176266, 217.352652)"><g><path d="M 3.421875 0 L 0.359375 0 L 2.4375 -11.734375 L 5.484375 -11.734375 Z M 3.421875 0 "/></g></g></g><g fill="#1b1b22" fill-opacity="1"><g transform="translate(275.848962, 217.352652)"><g><path d="M 7.703125 -3.046875 L 4.015625 -3.046875 L 2.515625 0 L -0.734375 0 L 5.453125 -11.734375 L 9.421875 -11.734375 L 11.46875 0 L 8.140625 0 Z M 7.359375 -5.421875 L 6.875 -8.890625 L 5.171875 -5.421875 Z M 7.359375 -5.421875 "/></g></g></g><g clip-path="url(#6a4493bf96)"><path fill="#1b1b22" d="M 32.125 205.183594 L 157.351562 205.183594 L 157.351562 218.269531 L 32.125 218.269531 Z M 32.125 205.183594 " fill-opacity="1" fill-rule="nonzero"/></g></svg>